<svg xmlns="http://www.w3.org/2000/svg" viewBox="0 0 480 600" width="480" height="600" role="img" aria-label="Placeholder portrait illustration">
  <defs>
    <clipPath id="arch-two">
      <path d="M40 240a200 200 0 0 1 400 0v320H40Z"/>
    </clipPath>
  </defs>

  <g clip-path="url(#arch-two)">
    <rect width="480" height="600" fill="#EFE3D3"/>
    <circle cx="240" cy="248" r="152" fill="#E3D3B8"/>

    <g fill="none" stroke="#211A16" stroke-width="4" stroke-linecap="round" stroke-linejoin="round">
      <path d="M136 580c0-84 46-134 104-134s104 50 104 134"/>
      <path d="M240 350v96"/>
      <path d="M176 256c0-42 28-74 64-74s64 32 64 74-28 96-64 96-64-54-64-96Z"/>
      <path d="M170 240c4-46 32-70 70-70s66 24 70 70"/>
      <path d="M170 240c22-14 44-20 70-20s48 6 70 20"/>
      <path d="M204 250c8-6 18-6 26 0M250 250c8-6 18-6 26 0"/>
      <path d="M212 268h16M252 268h16"/>
      <path d="M214 300c14 12 38 12 52 0" stroke="#C2452D"/>
      <path d="M182 272c2 44 26 80 58 80s56-36 58-80" stroke="#6F6257" stroke-width="3"/>
      <!-- collar -->
      <path d="M240 446l-28 46M240 446l28 46" stroke-width="3.5"/>
    </g>
  </g>

  <path d="M40 240a200 200 0 0 1 400 0v320H40Z" fill="none" stroke="#C2452D" stroke-width="3"/>

  <g fill="#D9922F">
    <circle cx="112" cy="196" r="9"/>
    <circle cx="368" cy="196" r="9"/>
    <circle cx="88" cy="436" r="6"/>
    <circle cx="392" cy="436" r="6"/>
  </g>
</svg>
